# xmcd
#
# Track frame offsets:
#	150
#	5127
#	14160
#	30602
#	49757
#	68545
#	85047
#	102437
#	115915
#	132100
#	160395
#	177152
#	194580
#	207157
#	224802
#	235557
#	253087
#
# Disc length: 3553 seconds
#
# Revision: 1
# Processed by: cddbd v1.5PL3 Copyright (c) Steve Scherf et al.
# Submitted via: audiograbber 1.83.01
#
DISCID=f20ddf11
DTITLE=Ahmet Kaya - Resitaller 1
DYEAR=1900
DGENRE=
TTITLE0=Once Dislerimiz Döküldü
TTITLE1=Lili Marlen Türküsü
TTITLE2=Odam Kireçtir Benim
TTITLE3=Aglama Bebek
TTITLE4=Kara Yilan
TTITLE5=Amenna
TTITLE6=Hani Benim Gençligim
TTITLE7=Geçmiyor Günler
TTITLE8=Katlime Ferman
TTITLE9=Safak Türküsü
TTITLE10=Dersin 4 Dag Içinde
TTITLE11=Yüregim Kaniyor
TTITLE12=Metris Türküsü
TTITLE13=Acilara Tutunmak
TTITLE14=Bacalar
TTITLE15=Kara Toprak (Mamos)
TTITLE16=Kadinlar
EXTD=
EXTT0=
EXTT1=
EXTT2=
EXTT3=
EXTT4=
EXTT5=
EXTT6=
EXTT7=
EXTT8=
EXTT9=
EXTT10=
EXTT11=
EXTT12=
EXTT13=
EXTT14=
EXTT15=
EXTT16=
PLAYORDER=
